<?xml version="1.0" encoding="UTF-8"?>
<svg id="Layer_2" data-name="Layer 2" xmlns="http://www.w3.org/2000/svg" viewBox="0 0 384 384">
  <defs>
    <style>
      .cls-1 {
        fill: #fff;
      }
    </style>
  </defs>
  <g id="Layer_1-2" data-name="Layer 1">
    <g>
      <path class="cls-1" d="M316.5,0c5.15,1.37,10.48,1.96,15.59,3.54,22.2,6.86,41.51,26.16,48.38,48.38,1.58,5.11,2.17,10.44,3.54,15.59v249c-1.37,5.15-1.96,10.48-3.54,15.59-6.83,22.1-26.27,41.54-48.38,48.38-5.11,1.58-10.44,2.17-15.59,3.54H67.5c-4.95-1.34-10.08-1.89-15.01-3.37-22.42-6.73-42.04-26.16-48.95-48.55-1.58-5.11-2.17-10.44-3.54-15.59V67.5C3.79,32.93,32.53,3.23,67.5,0h249ZM255.55,123.93c-5.34.91-10.98,6.09-11.74,11.51-3.11,22.39,28.09,22.46,30.64,6.64,1.99-12.38-6.77-20.21-18.9-18.15ZM109.5,260.25h29.62l10.08-33.42,37.63.12,9.67,33.3h32.25l-41.6-131.3-38.29.79-39.36,130.51ZM273.75,165h-29.25v95.25h29.25v-95.25Z"/>
      <polygon class="cls-1" points="182.25 204.75 153.75 204.75 167.63 151.49 182.25 204.75"/>
    </g>
  </g>
</svg>