<?xml version="1.0" encoding="UTF-8"?>
<svg id="Layer_2" data-name="Layer 2" xmlns="http://www.w3.org/2000/svg" viewBox="0 0 933.7 936.61">
  <defs>
    <style>
      .cls-1 {
        fill: #fff;
      }
    </style>
  </defs>
  <g id="Layer_1-2" data-name="Layer 1">
    <path class="cls-1" d="M797.5,137.9c309.93,313.7,52.37,839.73-385.55,796.16-58.98-5.87-131.69-48.16-173.68-50.11-57.17-2.65-146.92,43.99-205.5,49.48-11.71,1.1-20.12,3.72-28.1-8-18.35-26.95,57.89-183.89,53.41-227.06-2.08-20.02-36.78-80.88-44.83-115.86C-93.55,118.3,470.33-193.26,797.5,137.9ZM708.24,571.79l-115.28-48.72c-16.42,1.82-41.63,50.07-62.83,55.91-50.89,14.01-200.45-121.9-180.8-160.52,9.33-18.33,38.23-20.69,36.18-55.04-.62-10.41-39.02-101.67-45.64-107.46-56.13-49.16-115.74,38.53-117.63,96.29-4.75,144.98,254.34,366.58,398.99,337.49,42.11-8.47,113.85-75.32,87.01-117.95Z"/>
  </g>
</svg>